<svg xmlns="http://www.w3.org/2000/svg" viewBox="0 0 349.04 349.04"><defs><style>.cls-1{fill:#c7996b;}.cls-2{fill:#a8122b;}.cls-3{fill:#263047;}</style></defs><title>altana2bZasób 1</title><g id="Warstwa_2" data-name="Warstwa 2"><g id="Warstwa_1-2" data-name="Warstwa 1"><path class="cls-1" d="M176,1.5c-95.4,0-173,77.61-173,173s77.61,173,173,173,173-77.62,173-173S271.41,1.5,176,1.5"/><path class="cls-2" d="M256.13,75.46v0Z"/><path class="cls-3" d="M221.41,112.16q-12.71,0-12.71,12.71v80l-13.28,15.59-16.75-19.05,8.66-9.82V120.68q0-21.95,21.37-32.2c5.1-2.88,47.38,2.91,47.44-13v0c0,13.63-.09,146.92-.09,179.05,0,39,32.59,22,45.26,15.87a159,159,0,1,0-253.23.46c20.84,18.15,44,8.76,44-16.18,0-32.11,0-165.33,0-179h0v0h0c0,16.13,35.8,6.22,49.59,14.21s19.12,15.17,19.12,34.66v67l47.93,54.86v21.36q0,26.71-13.42,35-18.78,10.68-21.8,18.77a11.48,11.48,0,0,0-.6-1.55q-3.62-7.68-20.77-17.37-12.71-8.24-12.71-40.57V245.9l13.86-14.43,16.17,18.47-8.66,10.4v6.35q0,15,12.71,15,13.85,0,13.85-15v-6.35L139.4,204.9v-80q0-12.7-13.43-12.71-13.12,0-13.13,12.42V321.07a159.45,159.45,0,0,0,122.43.38V127.18q0-15-13.86-15"/><path class="cls-3" d="M174.52,349C78.29,349,0,270.75,0,174.52S78.29,0,174.52,0,349,78.29,349,174.52,270.75,349,174.52,349m0-341.86C82.25,7.18,7.18,82.25,7.18,174.52S82.25,341.86,174.52,341.86s167.34-75.07,167.34-167.34S266.79,7.18,174.52,7.18"/><path class="cls-2" d="M256.13,75.46v0Z"/></g></g></svg>