<svg xmlns="http://www.w3.org/2000/svg" viewBox="0 0 292.35 292.35"><defs><style>.cls-1{fill:#a8122b;}.cls-2{fill:#40b0c2;}</style></defs><title>altana2bZasób 1</title><g id="Warstwa_2" data-name="Warstwa 2"><g id="Warstwa_1-2" data-name="Warstwa 1"><path class="cls-1" d="M214.53,63.21v0Z"/><path class="cls-2" d="M185.45,93.94q-10.65,0-10.65,10.64v67l-11.13,13.07-14-16,7.25-8.23V101.08q0-18.39,17.9-27c4.27-2.41,39.69,2.44,39.73-10.9v0c0,11.42-.07,123.06-.07,150,0,32.65,27.3,18.38,37.9,13.29a133.14,133.14,0,1,0-212.09.39c17.46,15.2,36.84,7.33,36.84-13.55,0-26.9,0-138.48,0-149.9h0v0h0c0,13.51,30,5.21,41.54,11.9s16,12.71,16,29v56.15l40.15,46v17.89q0,22.36-11.24,29.26-15.74,9-18.26,15.73a9.91,9.91,0,0,0-.5-1.3q-3-6.43-17.4-14.55-10.64-6.89-10.64-34V206l11.61-12.09,13.54,15.47-7.26,8.71v5.32q0,12.58,10.65,12.58,11.61,0,11.6-12.58v-5.32l-40.14-46.44v-67q0-10.64-11.25-10.64-11,0-11,10.4V268.92a133.6,133.6,0,0,0,102.54.32V106.52q0-12.57-11.6-12.58"/><path class="cls-2" d="M146.17,292.35C65.57,292.35,0,226.77,0,146.17S65.57,0,146.17,0,292.35,65.57,292.35,146.17,226.77,292.35,146.17,292.35M146.17,6C68.89,6,6,68.89,6,146.17S68.89,286.33,146.17,286.33s140.16-62.88,140.16-140.16S223.45,6,146.17,6"/><path class="cls-1" d="M214.53,63.21v0Z"/></g></g></svg>