<svg xmlns="http://www.w3.org/2000/svg" viewBox="0 0 312 312"><defs><style>.cls-1{fill:#f7e8eb;}.cls-2{fill:#9a2630;}.cls-3{fill:#40afc2;}</style></defs><title>altana2bZasób 1</title><g id="Warstwa_2" data-name="Warstwa 2"><g id="Warstwa_1-2" data-name="Warstwa 1"><path class="cls-1" d="M196,259c-78.85,0-143-64.15-143-143A142.13,142.13,0,0,1,76.92,36.92,143,143,0,0,0,13,156c0,78.85,64.15,143,143,143a143,143,0,0,0,119.08-63.92A142.13,142.13,0,0,1,196,259Z"/><path class="cls-2" d="M156,312C70,312,0,242,0,156S70,0,156,0,312,70,312,156,242,312,156,312Zm0-300C76.6,12,12,76.6,12,156S76.6,300,156,300s144-64.6,144-144S235.4,12,156,12Z"/><path class="cls-3" d="M117.3,140.89a28,28,0,0,1,0-56,28,28,0,0,1,0,56Zm0-44a16,16,0,1,0,16,16,16,16,0,0,0-16-16Z"/><path class="cls-3" d="M192.94,228.85a28,28,0,1,1,28-28A28,28,0,0,1,192.94,228.85Zm0-44a16,16,0,1,0,16,16,16,16,0,0,0-16-16Z"/><path class="cls-3" d="M106.52,237.87a6,6,0,0,1-5-9.29L200.45,76.86a6,6,0,0,1,5-2.74h.32a6,6,0,0,1,4.69,9.28L111.55,235.14a6,6,0,0,1-5,2.73Z"/></g></g></svg>