<svg xmlns="http://www.w3.org/2000/svg" viewBox="0 0 440 396"><defs><style>.cls-1{fill:#f7e8eb;}.cls-2{fill:#40afc2;}.cls-3{fill:#9a2630;}</style></defs><title>altana2bZasób 1</title><g id="Warstwa_2" data-name="Warstwa 2"><g id="Warstwa_1-2" data-name="Warstwa 1"><path class="cls-1" d="M48.31,77.25A29.25,29.25,0,0,1,77.56,48H431.69V37.25A29.25,29.25,0,0,0,402.44,8H37.56A29.25,29.25,0,0,0,8.31,37.25V274.92a29.26,29.26,0,0,0,29.25,29.25H48.31Z"/><path class="cls-2" d="M8.31,256.22a8,8,0,0,1,0-16H431.69a8,8,0,0,1,0,16Z"/><path class="cls-3" d="M276,396a8,8,0,0,1-8-8V312H172v76a8,8,0,0,1-16,0V312H37.56C16.85,312,0,295.37,0,274.92V37.25A37.45,37.45,0,0,1,37.56,0H402.44A37.45,37.45,0,0,1,440,37.25V274.92c0,20.45-16.85,37.08-37.56,37.08H284v76A8,8,0,0,1,276,396ZM37.25,16A21.27,21.27,0,0,0,16,37.25v237.5A21.27,21.27,0,0,0,37.25,296h364.5A21.27,21.27,0,0,0,423,274.75V37.25A21.27,21.27,0,0,0,401.75,16Z"/><path class="cls-2" d="M130.11,396a8,8,0,0,1,0-16h185a8,8,0,0,1,0,16Z"/></g></g></svg>