<svg xmlns="http://www.w3.org/2000/svg" viewBox="0 0 291.23 374"><defs><style>.cls-1{fill:#40afc2;}.cls-2{fill:#9a2630;}.cls-3{fill:#f7e8eb;}</style></defs><title>altana2bZasób 1</title><g id="Warstwa_2" data-name="Warstwa 2"><g id="Warstwa_1-2" data-name="Warstwa 1"><path class="cls-1" d="M123.73,230a7,7,0,0,1-5.32-2.45l-37-43.29a7,7,0,0,1,10.65-9.09l32.52,38.09,80.79-65.73a7,7,0,0,1,8.83,10.86l-86.09,70A7,7,0,0,1,123.73,230Z"/><path class="cls-2" d="M121.42,365.15l19,8.27a7,7,0,0,0,5.57,0l21.38-9.24A202.15,202.15,0,0,0,291.23,177.8V81.9a7,7,0,0,0-3.7-6.18L147,.82a7,7,0,0,0-6.65,0L3.63,75.76A7,7,0,0,0,0,81.9v97.84A202.57,202.57,0,0,0,121.42,365.15ZM14,86.05,143.72,15,277.24,86.1v91.7A188.22,188.22,0,0,1,161.86,351.32l-.05,0-18.61,8L127,352.32A188.57,188.57,0,0,1,14,179.74Z"/><path class="cls-3" d="M191.85,311.33l0,0-18.61,8L157,312.33A188.57,188.57,0,0,1,44,139.75V69.61L14,86.05v93.69A188.57,188.57,0,0,0,127,352.32l16.17,7.05,18.62-8,.05,0a188.8,188.8,0,0,0,91.47-81.74A189.52,189.52,0,0,1,191.85,311.33Z"/></g></g></svg>