<svg xmlns="http://www.w3.org/2000/svg" viewBox="0 0 439.74 427.52"><defs><style>.cls-1{fill:#f7e8eb;}.cls-2{fill:#9a2630;}.cls-3{fill:#40afc2;}</style></defs><title>altana2bZasób 1</title><g id="Warstwa_2" data-name="Warstwa 2"><g id="Warstwa_1-2" data-name="Warstwa 1"><path class="cls-1" d="M296.9,401l7.39-43.86-52.56-51,72.49-10.65L344,255.05l-17.56-35.31-32.2,65.79-72.48,10.66,52.55,51-12.21,72.23Z"/><path class="cls-1" d="M120.77,123.65a95.59,95.59,0,0,1,95.35-95.81c3.1,0,6.1.19,9.09.38A95.6,95.6,0,1,0,157.5,198.76,95.6,95.6,0,0,1,120.77,123.65Z"/><path class="cls-1" d="M216.57,262.74a161.79,161.79,0,0,1,33.57,3.42,157.57,157.57,0,0,0-83.55-23.28c-88,.41-159,70.79-158.6,166.37L58.92,409C67.81,323.81,134.88,263.14,216.57,262.74Z"/><path class="cls-2" d="M166.47,207.13A103.57,103.57,0,0,1,166.12,0h.25a103.57,103.57,0,0,1,.24,207.13ZM166.16,16a87.6,87.6,0,0,0,.2,175.19h.21A87.6,87.6,0,0,0,166.37,16Z"/><path class="cls-2" d="M7.9,417.23a7.92,7.92,0,0,1-5.57-2.29A8.24,8.24,0,0,1,0,409.25c-.21-47.9,17-92.1,48.38-124.44C79.2,253,120.92,235.25,165.93,234.9l.1.1h2a164,164,0,0,1,112.29,44.24l-11.08,11.53A147.94,147.94,0,0,0,168,251h-1.42c-40.82.1-78.71,16.08-106.69,45-26.13,26.86-41.64,63.5-43.67,103.16l-.1,2.11,245.49-1.07,0,16Z"/><path class="cls-3" d="M391.05,427.52a8,8,0,0,1-3.75-.95l-60.94-32.42-61.28,31.79a7.92,7.92,0,0,1-3.7.95,7.84,7.84,0,0,1-4.67-1.55,8,8,0,0,1-3.15-7.82l12-68-49.21-48.46a8,8,0,0,1,4.43-13.59l68.33-9.59L320,216.16a7.8,7.8,0,0,1,7-4.41h.14a7.93,7.93,0,0,1,7.13,4.45l30.26,62.09,68.28,10.29a8.26,8.26,0,0,1,6.51,5.45,7.93,7.93,0,0,1-2.07,8.09L387.62,350l11.31,68.13a8,8,0,0,1-3.26,7.84,7.75,7.75,0,0,1-4.56,1.54Zm-64.63-50.28a7.89,7.89,0,0,1,3.73.95L380.54,405l-9.38-56.3a7.69,7.69,0,0,1,2.27-7l41.1-39.57-56.36-8.47a7.75,7.75,0,0,1-6-4.36l-25-51.35-25.47,51a8,8,0,0,1-6.06,4.32l-56.54,7.88,40.63,40a8.09,8.09,0,0,1,2.25,7.11l-10,56.14,50.68-26.25A8.75,8.75,0,0,1,326.42,377.24Z"/></g></g></svg>